G04*
G04 #@! TF.GenerationSoftware,Altium Limited,Altium Designer,19.1.5 (86)*
G04*
G04 Layer_Color=16711935*
%FSLAX44Y44*%
%MOMM*%
G71*
G01*
G75*
%ADD19R,1.7272X1.5032*%
%ADD22C,1.8032*%
%ADD23R,1.8032X1.8032*%
%ADD24C,1.7032*%
%ADD25C,2.7032*%
%ADD26C,6.2032*%
%ADD27R,1.7032X1.7032*%
%ADD28C,1.4732*%
D19*
X630000Y511980D02*
D03*
Y545000D02*
D03*
D22*
X669290Y339090D02*
D03*
X694690D02*
D03*
X669290Y364490D02*
D03*
X694690D02*
D03*
X669290Y389890D02*
D03*
X694690D02*
D03*
X669290Y415290D02*
D03*
X694690D02*
D03*
X669290Y440690D02*
D03*
X694690D02*
D03*
X669290Y466090D02*
D03*
X694690D02*
D03*
X669290Y491490D02*
D03*
X694690D02*
D03*
X669290Y516890D02*
D03*
X694690D02*
D03*
X669290Y542290D02*
D03*
X929690Y716040D02*
D03*
X669290Y567690D02*
D03*
X694690D02*
D03*
X669290Y593090D02*
D03*
X694690D02*
D03*
X669290Y618490D02*
D03*
X694690D02*
D03*
X669290Y643890D02*
D03*
X694690D02*
D03*
X669290Y669290D02*
D03*
X694690D02*
D03*
X669290Y694690D02*
D03*
X694690D02*
D03*
X669290Y720090D02*
D03*
X694690D02*
D03*
X669290Y745490D02*
D03*
X694690D02*
D03*
X669290Y770890D02*
D03*
X694690D02*
D03*
X669290Y796290D02*
D03*
X694690D02*
D03*
X669290Y821690D02*
D03*
X694690D02*
D03*
X669290Y847090D02*
D03*
X694690D02*
D03*
X669290Y872490D02*
D03*
X694690D02*
D03*
X669290Y897890D02*
D03*
X694690D02*
D03*
X669290Y923290D02*
D03*
Y313690D02*
D03*
X694690D02*
D03*
X1202690D02*
D03*
X1177290D02*
D03*
Y923290D02*
D03*
X1202690Y897890D02*
D03*
X1177290D02*
D03*
X1202690Y872490D02*
D03*
X1177290D02*
D03*
X1202690Y847090D02*
D03*
X1177290D02*
D03*
X1202690Y821690D02*
D03*
Y796290D02*
D03*
X1177290D02*
D03*
X1202690Y770890D02*
D03*
X1177290D02*
D03*
X1202690Y745490D02*
D03*
X1177290D02*
D03*
X1202690Y720090D02*
D03*
X1177290D02*
D03*
X1202690Y694690D02*
D03*
X1177290D02*
D03*
X1202690Y669290D02*
D03*
X1177290D02*
D03*
X1202690Y643890D02*
D03*
X1177290D02*
D03*
X1202690Y618490D02*
D03*
X1177290D02*
D03*
X1202690Y593090D02*
D03*
X1177290D02*
D03*
X1202690Y567690D02*
D03*
X1177290D02*
D03*
X1202690Y542290D02*
D03*
X1177290D02*
D03*
X1202690Y516890D02*
D03*
X1177290D02*
D03*
X1202690Y491490D02*
D03*
X1177290D02*
D03*
X1202690Y466090D02*
D03*
X1177290D02*
D03*
X1202690Y440690D02*
D03*
X1177290D02*
D03*
X1202690Y415290D02*
D03*
X1177290D02*
D03*
X1202690Y389890D02*
D03*
X1177290D02*
D03*
X1202690Y364490D02*
D03*
X1177290D02*
D03*
X1202690Y339090D02*
D03*
X1177290D02*
D03*
Y821690D02*
D03*
D23*
X694690Y923290D02*
D03*
X1202690D02*
D03*
D24*
X401000Y896500D02*
D03*
Y922000D02*
D03*
Y947500D02*
D03*
Y973000D02*
D03*
X596110Y522640D02*
D03*
Y548140D02*
D03*
Y573640D02*
D03*
Y599140D02*
D03*
Y624640D02*
D03*
Y650140D02*
D03*
Y675640D02*
D03*
X1025000Y890000D02*
D03*
Y915400D02*
D03*
X1400000Y975400D02*
D03*
Y950000D02*
D03*
Y924600D02*
D03*
X1500000Y899200D02*
D03*
Y924600D02*
D03*
Y950000D02*
D03*
X1105000Y862500D02*
D03*
Y887900D02*
D03*
Y913300D02*
D03*
D25*
X1400000Y525000D02*
D03*
Y475000D02*
D03*
X1525000D02*
D03*
Y525000D02*
D03*
X300000Y797672D02*
D03*
X250000D02*
D03*
Y672672D02*
D03*
X300000D02*
D03*
X250000Y350000D02*
D03*
X300000D02*
D03*
Y475000D02*
D03*
X250000D02*
D03*
X50000Y600000D02*
D03*
Y550000D02*
D03*
X175000D02*
D03*
Y600000D02*
D03*
X375000D02*
D03*
Y550000D02*
D03*
X500000D02*
D03*
Y600000D02*
D03*
X1075000Y250000D02*
D03*
X1025000D02*
D03*
Y125000D02*
D03*
X1075000D02*
D03*
X850000Y250000D02*
D03*
X800000D02*
D03*
Y125000D02*
D03*
X850000D02*
D03*
X1475000Y700000D02*
D03*
Y650000D02*
D03*
X1600000D02*
D03*
Y700000D02*
D03*
D26*
X500000Y207500D02*
D03*
X107500Y397500D02*
D03*
X460000Y742500D02*
D03*
X1482500Y787500D02*
D03*
X1452500Y235000D02*
D03*
D27*
X1025000Y864600D02*
D03*
X1400000Y899200D02*
D03*
X1500000Y975400D02*
D03*
X1105000Y837100D02*
D03*
D28*
X572500Y975000D02*
D03*
X592500Y912500D02*
D03*
X950000Y922500D02*
D03*
X952500Y895000D02*
D03*
X822500Y910000D02*
D03*
X1437500Y962500D02*
D03*
X1550000Y965000D02*
D03*
X264160Y571500D02*
D03*
X597500Y312500D02*
D03*
X622500Y692500D02*
D03*
X630000Y667500D02*
D03*
Y635000D02*
D03*
X625000Y602500D02*
D03*
X627500Y575000D02*
D03*
M02*
