G04*
G04 #@! TF.GenerationSoftware,Altium Limited,Altium Designer,19.1.5 (86)*
G04*
G04 Layer_Color=65535*
%FSLAX44Y44*%
%MOMM*%
G71*
G01*
G75*
%ADD10C,0.2500*%
%ADD11C,0.2540*%
%ADD12C,0.2000*%
%ADD13C,0.1524*%
D10*
X715340Y896870D02*
G03*
X715340Y896870I-1250J0D01*
G01*
D11*
X1291110Y410640D02*
Y788640D01*
X571110D02*
X1291110D01*
X571110Y410640D02*
Y788640D01*
Y410640D02*
X1291110D01*
X1400000Y440000D02*
Y460000D01*
Y440000D02*
X1525000D01*
Y460000D01*
X1400000Y490000D02*
Y510000D01*
X1525000Y490000D02*
Y510000D01*
X1400000Y565000D02*
X1525000D01*
X1400000Y540000D02*
Y565000D01*
X1525000Y540000D02*
Y565000D01*
X215000Y797672D02*
X235000D01*
X215000Y672672D02*
Y797672D01*
Y672672D02*
X235000D01*
X265000Y797672D02*
X285000D01*
X265000Y672672D02*
X285000D01*
X340000D02*
Y797672D01*
X315000D02*
X340000D01*
X315000Y672672D02*
X340000D01*
X315000Y350000D02*
X335000D01*
Y475000D01*
X315000D02*
X335000D01*
X265000Y350000D02*
X285000D01*
X265000Y475000D02*
X285000D01*
X210000Y350000D02*
Y475000D01*
Y350000D02*
X235000D01*
X210000Y475000D02*
X235000D01*
X50000Y515000D02*
Y535000D01*
Y515000D02*
X175000D01*
Y535000D01*
X50000Y565000D02*
Y585000D01*
X175000Y565000D02*
Y585000D01*
X50000Y640000D02*
X175000D01*
X50000Y615000D02*
Y640000D01*
X175000Y615000D02*
Y640000D01*
X375000Y515000D02*
Y535000D01*
Y515000D02*
X500000D01*
Y535000D01*
X375000Y565000D02*
Y585000D01*
X500000Y565000D02*
Y585000D01*
X375000Y640000D02*
X500000D01*
X375000Y615000D02*
Y640000D01*
X500000Y615000D02*
Y640000D01*
X990000Y250000D02*
X1010000D01*
X990000Y125000D02*
Y250000D01*
Y125000D02*
X1010000D01*
X1040000Y250000D02*
X1060000D01*
X1040000Y125000D02*
X1060000D01*
X1115000D02*
Y250000D01*
X1090000D02*
X1115000D01*
X1090000Y125000D02*
X1115000D01*
X765000Y250000D02*
X785000D01*
X765000Y125000D02*
Y250000D01*
Y125000D02*
X785000D01*
X815000Y250000D02*
X835000D01*
X815000Y125000D02*
X835000D01*
X890000D02*
Y250000D01*
X865000D02*
X890000D01*
X865000Y125000D02*
X890000D01*
X1475000Y615000D02*
Y635000D01*
Y615000D02*
X1600000D01*
Y635000D01*
X1475000Y665000D02*
Y685000D01*
X1600000Y665000D02*
Y685000D01*
X1475000Y740000D02*
X1600000D01*
X1475000Y715000D02*
Y740000D01*
X1600000Y715000D02*
Y740000D01*
X586610Y507640D02*
Y502562D01*
Y505101D01*
X601845D01*
X599306Y507640D01*
Y469552D02*
X601845Y472091D01*
Y477170D01*
X599306Y479709D01*
X589149D01*
X586610Y477170D01*
Y472091D01*
X589149Y469552D01*
X594227D01*
Y474631D01*
X586610Y464474D02*
X601845D01*
X586610Y454317D01*
X601845D01*
Y449239D02*
X586610D01*
Y441621D01*
X589149Y439082D01*
X599306D01*
X601845Y441621D01*
Y449239D01*
X599056Y741233D02*
X601595Y743773D01*
Y748851D01*
X599056Y751390D01*
X588899D01*
X586360Y748851D01*
Y743773D01*
X588899Y741233D01*
X599056Y725998D02*
X601595Y728537D01*
Y733616D01*
X599056Y736155D01*
X596517D01*
X593978Y733616D01*
Y728537D01*
X591438Y725998D01*
X588899D01*
X586360Y728537D01*
Y733616D01*
X588899Y736155D01*
X601595Y705685D02*
Y695528D01*
X599056D01*
X588899Y705685D01*
X586360D01*
X1023913Y954473D02*
X1018834D01*
X1021374D01*
Y941777D01*
X1018834Y939238D01*
X1016295D01*
X1013756Y941777D01*
X1028991Y951934D02*
X1031530Y954473D01*
X1036609D01*
X1039148Y951934D01*
Y949395D01*
X1034069Y944316D01*
Y941777D02*
Y939238D01*
X714248Y991357D02*
Y978661D01*
X716787Y976122D01*
X721865D01*
X724405Y978661D01*
Y991357D01*
X729483Y976122D02*
X734561D01*
X732022D01*
Y991357D01*
X729483Y988818D01*
X814941Y306383D02*
Y321618D01*
X822559D01*
X825098Y319079D01*
Y314000D01*
X822559Y311461D01*
X814941D01*
X820019D02*
X825098Y306383D01*
X830176Y319079D02*
X832715Y321618D01*
X837794D01*
X840333Y319079D01*
Y316540D01*
X837794Y314000D01*
X840333Y311461D01*
Y308922D01*
X837794Y306383D01*
X832715D01*
X830176Y308922D01*
Y311461D01*
X832715Y314000D01*
X830176Y316540D01*
Y319079D01*
X832715Y314000D02*
X837794D01*
X1033902Y311484D02*
Y326719D01*
X1041519D01*
X1044059Y324180D01*
Y319102D01*
X1041519Y316562D01*
X1033902D01*
X1038980D02*
X1044059Y311484D01*
X1049137Y326719D02*
X1059294D01*
Y324180D01*
X1049137Y314023D01*
Y311484D01*
X286258Y564896D02*
Y580131D01*
X293876D01*
X296415Y577592D01*
Y572514D01*
X293876Y569974D01*
X286258D01*
X291336D02*
X296415Y564896D01*
X311650Y580131D02*
X306571Y577592D01*
X301493Y572514D01*
Y567435D01*
X304032Y564896D01*
X309111D01*
X311650Y567435D01*
Y569974D01*
X309111Y572514D01*
X301493D01*
X235966Y610616D02*
Y625851D01*
X243584D01*
X246123Y623312D01*
Y618233D01*
X243584Y615694D01*
X235966D01*
X241044D02*
X246123Y610616D01*
X261358Y625851D02*
X251201D01*
Y618233D01*
X256279Y620773D01*
X258819D01*
X261358Y618233D01*
Y613155D01*
X258819Y610616D01*
X253740D01*
X251201Y613155D01*
X235966Y564896D02*
Y580131D01*
X243584D01*
X246123Y577592D01*
Y572514D01*
X243584Y569974D01*
X235966D01*
X241044D02*
X246123Y564896D01*
X258819D02*
Y580131D01*
X251201Y572514D01*
X261358D01*
X287274Y610616D02*
Y625851D01*
X294891D01*
X297431Y623312D01*
Y618233D01*
X294891Y615694D01*
X287274D01*
X292352D02*
X297431Y610616D01*
X302509Y623312D02*
X305048Y625851D01*
X310127D01*
X312666Y623312D01*
Y620773D01*
X310127Y618233D01*
X307587D01*
X310127D01*
X312666Y615694D01*
Y613155D01*
X310127Y610616D01*
X305048D01*
X302509Y613155D01*
X1351254Y527678D02*
Y542913D01*
X1358871D01*
X1361411Y540374D01*
Y535296D01*
X1358871Y532756D01*
X1351254D01*
X1356332D02*
X1361411Y527678D01*
X1376646D02*
X1366489D01*
X1376646Y537835D01*
Y540374D01*
X1374107Y542913D01*
X1369028D01*
X1366489Y540374D01*
X1419246Y681268D02*
Y696503D01*
X1426864D01*
X1429403Y693964D01*
Y688885D01*
X1426864Y686346D01*
X1419246D01*
X1424324D02*
X1429403Y681268D01*
X1434481D02*
X1439559D01*
X1437020D01*
Y696503D01*
X1434481Y693964D01*
X1103055Y951011D02*
X1097976D01*
X1100516D01*
Y938315D01*
X1097976Y935776D01*
X1095437D01*
X1092898Y938315D01*
X1118290Y935776D02*
X1108133D01*
X1118290Y945933D01*
Y948472D01*
X1115751Y951011D01*
X1110672D01*
X1108133Y948472D01*
X1539148Y957595D02*
X1536608Y960134D01*
X1531530D01*
X1528991Y957595D01*
Y947438D01*
X1531530Y944899D01*
X1536608D01*
X1539148Y947438D01*
X1551844Y944899D02*
Y960134D01*
X1544226Y952516D01*
X1554383D01*
X776221Y892552D02*
X773681Y895091D01*
X768603D01*
X766064Y892552D01*
Y882395D01*
X768603Y879856D01*
X773681D01*
X776221Y882395D01*
X781299Y892552D02*
X783838Y895091D01*
X788917D01*
X791456Y892552D01*
Y890013D01*
X788917Y887474D01*
X786377D01*
X788917D01*
X791456Y884934D01*
Y882395D01*
X788917Y879856D01*
X783838D01*
X781299Y882395D01*
X735835Y892552D02*
X733296Y895091D01*
X728217D01*
X725678Y892552D01*
Y882395D01*
X728217Y879856D01*
X733296D01*
X735835Y882395D01*
X751070Y879856D02*
X740913D01*
X751070Y890013D01*
Y892552D01*
X748531Y895091D01*
X743452D01*
X740913Y892552D01*
X738375Y866136D02*
X735835Y868675D01*
X730757D01*
X728218Y866136D01*
Y855979D01*
X730757Y853440D01*
X735835D01*
X738375Y855979D01*
X743453Y853440D02*
X748531D01*
X745992D01*
Y868675D01*
X743453Y866136D01*
X1464126Y759018D02*
X1474283Y748861D01*
X1464126D02*
X1474283Y759018D01*
X1464126Y753940D02*
X1474283D01*
X1469204Y748861D02*
Y759018D01*
X572488Y807724D02*
X582645Y797567D01*
X572488D02*
X582645Y807724D01*
X572488Y802645D02*
X582645D01*
X577566Y797567D02*
Y807724D01*
X766388Y283790D02*
X776545Y273633D01*
X766388D02*
X776545Y283790D01*
X766388Y278711D02*
X776545D01*
X771466Y273633D02*
Y283790D01*
X781623Y286329D02*
X791780D01*
Y283790D01*
X781623Y273633D01*
Y271094D01*
X991286Y283930D02*
X1001443Y273773D01*
X991286D02*
X1001443Y283930D01*
X991286Y278852D02*
X1001443D01*
X996364Y273773D02*
Y283930D01*
X1016678Y286469D02*
X1011599Y283930D01*
X1006521Y278852D01*
Y273773D01*
X1009060Y271234D01*
X1014139D01*
X1016678Y273773D01*
Y276312D01*
X1014139Y278852D01*
X1006521D01*
X363951Y661629D02*
X374108Y651472D01*
X363951D02*
X374108Y661629D01*
X363951Y656551D02*
X374108D01*
X369029Y651472D02*
Y661629D01*
X389343Y664168D02*
X379186D01*
Y656551D01*
X384264Y659090D01*
X386804D01*
X389343Y656551D01*
Y651472D01*
X386804Y648933D01*
X381725D01*
X379186Y651472D01*
X38951Y661629D02*
X49108Y651472D01*
X38951D02*
X49108Y661629D01*
X38951Y656551D02*
X49108D01*
X44029Y651472D02*
Y661629D01*
X61804Y648933D02*
Y664168D01*
X54186Y656551D01*
X64343D01*
X211354Y508778D02*
X221511Y498621D01*
X211354D02*
X221511Y508778D01*
X211354Y503699D02*
X221511D01*
X216432Y498621D02*
Y508778D01*
X226589D02*
X229128Y511317D01*
X234207D01*
X236746Y508778D01*
Y506239D01*
X234207Y503699D01*
X231667D01*
X234207D01*
X236746Y501160D01*
Y498621D01*
X234207Y496082D01*
X229128D01*
X226589Y498621D01*
X216218Y831417D02*
X226375Y821261D01*
X216218D02*
X226375Y831417D01*
X216218Y826339D02*
X226375D01*
X221296Y821261D02*
Y831417D01*
X241610Y818721D02*
X231453D01*
X241610Y828878D01*
Y831417D01*
X239071Y833957D01*
X233992D01*
X231453Y831417D01*
X1388951Y586629D02*
X1399108Y576472D01*
X1388951D02*
X1399108Y586629D01*
X1388951Y581550D02*
X1399108D01*
X1394029Y576472D02*
Y586629D01*
X1404186Y573933D02*
X1409264D01*
X1406725D01*
Y589168D01*
X1404186Y586629D01*
D12*
X1012300Y847600D02*
X1037700D01*
X1012300D02*
Y930639D01*
X1012585Y930740D02*
X1037700D01*
Y847600D02*
Y930740D01*
X1012300Y930639D02*
X1012585Y930740D01*
X719340Y912370D02*
X784340D01*
Y944370D01*
X719340D02*
X784340D01*
X719340Y912370D02*
Y944370D01*
X797340Y853430D02*
Y871330D01*
X764640D02*
X797340D01*
X764640Y853430D02*
Y871330D01*
Y853430D02*
X797340D01*
X724120Y853330D02*
Y871230D01*
Y853330D02*
X756820D01*
Y871230D01*
X724120D02*
X756820D01*
X753214Y831400D02*
Y844900D01*
X726614Y831400D02*
X753214D01*
X726614D02*
Y844900D01*
X753214D01*
X1527500Y936380D02*
X1547400D01*
X1527500Y885680D02*
Y936380D01*
Y885680D02*
X1547400D01*
Y936380D01*
X1091400Y927200D02*
X1119000D01*
Y823300D02*
Y927200D01*
X1091400Y823300D02*
Y927200D01*
Y823300D02*
X1119000D01*
D13*
X1417500Y657000D02*
Y673000D01*
Y657000D02*
X1455500D01*
Y673000D01*
X1417500D02*
X1455500D01*
X1349500Y481336D02*
X1365500D01*
Y519336D01*
X1349500D02*
X1365500D01*
X1349500Y481336D02*
Y519336D01*
X323370Y586360D02*
Y602360D01*
X285370D02*
X323370D01*
X285370Y586360D02*
Y602360D01*
Y586360D02*
X323370D01*
X234160Y540640D02*
Y556640D01*
Y540640D02*
X272160D01*
Y556640D01*
X234160D02*
X272160D01*
X234160Y586360D02*
Y602360D01*
Y586360D02*
X272160D01*
Y602360D01*
X234160D02*
X272160D01*
X322354Y540640D02*
Y556640D01*
X284354D02*
X322354D01*
X284354Y540640D02*
Y556640D01*
Y540640D02*
X322354D01*
X1070000Y287000D02*
Y303000D01*
X1032000D02*
X1070000D01*
X1032000Y287000D02*
Y303000D01*
Y287000D02*
X1070000D01*
X851164Y282000D02*
Y298000D01*
X813164D02*
X851164D01*
X813164Y282000D02*
Y298000D01*
Y282000D02*
X851164D01*
M02*
