M48
;Layer_Color=9474304
;FILE_FORMAT=2:5
INCH,LZ
;TYPE=PLATED
T1F00S00C0.02800
T2F00S00C0.03543
T3F00S00C0.03937
T4F00S00C0.05906
T5F00S00C0.19685
%
T01
X0235236Y0123031
X0247047Y0226378
X0246063Y0237205
X0248031Y025
Y0262795
X0245079Y0272638
X0104Y0225
X0233268Y0359252
X0225394Y0383858
X0323819Y0358268
X0374016Y0363189
X0375Y0352362
X0565945Y0378937
X0610236Y0379921
T02
X0403543Y0340394
Y0350394
Y0360394
X0435039Y0359567
Y0349567
Y0339567
Y0329567
X0551181Y0354016
Y0364016
Y0374016
Y0384016
X0590551
Y0374016
Y0364016
Y0354016
T03
X02635Y01235
Y01335
X02735
Y01435
X02635
Y01535
X02735
Y01235
X04635
Y01335
Y01435
Y01535
X04735
Y01435
Y01335
Y01235
Y01635
Y01735
Y01835
Y01935
Y02035
Y02135
Y02235
Y02335
Y02435
Y02535
Y02635
Y02735
Y02835
Y02935
Y03035
X04635
Y02935
Y02835
Y02735
Y02635
Y02535
Y02435
Y02335
Y02235
Y02135
Y02035
Y01935
Y01835
Y01735
Y01635
X036602Y0281906
X02735Y02835
Y02735
Y02635
Y02535
Y02435
Y02335
Y02235
X02635
Y02135
Y02035
Y01935
Y01835
Y01735
Y01635
X02735
Y01735
Y01835
Y01935
Y02035
X02635Y02335
Y02435
Y02535
Y02635
Y02735
Y02835
Y02935
X02735
Y03035
X02635
X0234689Y0266
Y0255961
Y0245921
Y0235882
Y0225842
Y0215803
Y0205764
X02635Y03135
X02735
Y03235
X02635
Y03335
X02735
Y03435
X02635
Y03535
X02735
Y03635
X02635
X0157874Y0362992
Y0352953
Y0373031
Y0383071
X04635Y03635
Y03535
Y03435
Y03335
Y03235
Y03135
X04735
Y03235
Y03335
Y03435
Y03535
Y03635
T04
X0098425Y0137795
X011811
X0314961Y0098425
X0334646
Y0049213
X0314961
X0403543
X0423228
Y0098425
X0403543
X0629921Y0255906
Y027559
X0580709
Y0255906
X0600394Y0206693
Y0187008
X0551181
Y0206693
X019685Y0216535
Y0236221
X0147638
Y0216535
X011811Y0187008
X0098425
X0068898Y0216535
Y0236221
X0019685
Y0216535
X0098425Y0264831
X011811
Y0314044
X0098425
T05
X019685Y0081693
X057185Y009252
X0583661Y0310039
X0181102Y0292323
X0042323Y0156496
M30
